<?xml version="1.0" encoding="UTF-8"?>
<svg width="32" height="32" version="1.1" viewBox="0 0 32 32" xmlns="http://www.w3.org/2000/svg"><path d="m23.118 28.682c-2.138-3.0023-3.8935-5.537-5.705-8.1052l-3.8824 0.01951-6.686 8.797c-0.8888 0.33792-1.012-0.5091-0.35323-2.4288l5.1015-17.913c0.211-1.3402 0.12428-1.4673-1.0045-1.472-0.92545-0.0038879-1.3655-0.17051-1.3655-0.51711 0-0.39722 0.66055-0.68522 1.5716-0.68522 0.99844 0 1.4693-0.43248 1.3874-1.2743-0.05548-0.57029-0.13421-0.63433-0.90653-0.73741-1.0507-0.14023-1.2649-0.33719-0.76471-0.70297 0.59268-0.43338 9.3481-0.41428 9.7095 0.021171 0.32537 0.39205 0.17342 0.5292-0.75134 0.67818-0.65792 0.10598-0.75825 0.19566-0.80382 0.71844-0.08056 0.92412 0.20989 1.1795 1.4714 1.2938 0.79563 0.072065 1.2043 0.21 1.3584 0.45855 0.31213 0.50329-0.13486 0.73701-1.4167 0.74079-0.61079 0.00177-1.1015 0.10583-1.1931 0.25291-0.19334 1.0097 0.33541 1.7366 0.53609 2.6429l5.1051 17.517c0.11638 0.66559 0.08504 1.4397-0.27988 1.4397-0.27555 0-0.64728-0.01872-1.1283-0.74341zm-5.5747-16.843-1.9807-0.08638 0.25637-3.1765c-0.74252 1.4645-1.8234 3.0932-2.6263 4.4061l2.0267 0.0089-0.25539 3.1804zm-13.317-4.4486c-0.23156-0.15607-0.24955-0.283-0.078998-0.55755 0.17067-0.27475 0.53646-0.36864 1.6108-0.41343 1.1905-0.049638 1.4431 7.069e-4 1.7601 0.35101 0.20356 0.22493 0.30354 0.47553 0.22219 0.55689-0.23407 0.23407-3.1818 0.28699-3.514 0.063083zm18.638-0.044202c-0.15858-0.15859-0.16886-0.34566-0.03294-0.59963 0.28822-0.53856 3.1615-0.54378 3.6476-0.00664 0.25306 0.27963 0.27386 0.41672 0.09094 0.59963-0.31255 0.31255-3.3942 0.31806-3.7056 0.00664zm-17.826-3.1552c-0.24516-0.15513-0.2466-0.23022-0.0098399-0.5155 0.22734-0.27393 0.57214-0.32155 1.9194-0.26508 1.7405 0.07295 1.9957 0.16617 1.8063 0.65984-0.093633 0.244-0.46414 0.3078-1.7736 0.30538-0.9104-0.0016966-1.7844-0.084773-1.9422-0.18464zm16.871-0.020931c-0.3038-0.49156 0.35532-0.79076 1.742-0.79076 1.5991 0 2.3222 0.26461 1.9496 0.71351-0.28549 0.34399-3.4853 0.41094-3.6916 0.077244z" stroke-width=".19988"/></svg>
