<?xml version="1.0" encoding="UTF-8"?> <svg width="32px" height="32px" viewBox="0 0 32 32" version="1.1" xmlns="http://www.w3.org/2000/svg" xmlns:xlink="http://www.w3.org/1999/xlink"> <!-- Generator: Sketch 51.3 (57544) - http://www.bohemiancoding.com/sketch --> <title>devicesBridgesV2</title> <desc>Created with Sketch.</desc> <defs></defs> <g stroke="none" stroke-width="1" fill="none" fill-rule="evenodd"> <g fill="#101010"> <path d="M 3.0888827,26.501514 C 2.9390624,26.335964 2.7380171,25.850388 2.6421155,25.422457 2.4082283,24.378805 2.0426573,17.427558 2.1809492,16.83467 2.2413835,16.575575 2.6808721,15.961567 3.1575907,15.470207 3.6968292,14.914407 3.9626594,14.518434 3.8610881,14.422298 3.7712932,14.337308 3.1420537,14.238339 2.4627782,14.202366 0.98461291,14.124087 0.58317933,13.85769 0.898972,13.1646 c 0.2428722,-0.533046 0.9380573,-0.85039 1.6993572,-0.775736 0.4687215,0.04596 0.5925281,0.152118 0.7597278,0.651405 0.1545512,0.461517 0.2927231,0.596493 0.610613,0.596493 0.3703483,0 0.4789508,-0.193256 1.1013921,-1.959906 C 5.8977085,9.3277814 6.3552199,7.4972746 6.9319136,7.0436474 7.7094738,6.4320184 9.8418277,6.2431196 15.968541,6.2431196 c 5.853872,0 8.257717,0.1896487 9.059053,0.7147031 0.488071,0.3197974 1.540421,3.3770783 2.188629,5.3677923 0.43046,1.321989 0.48991,1.41222 0.898293,1.363413 0.328187,-0.03922 0.486963,-0.201128 0.636219,-0.648759 0.228452,-0.68514 0.64891,-0.822018 1.625901,-0.529304 0.40619,0.121698 0.691407,0.345284 0.830842,0.651312 0.331626,0.727838 -0.212681,1.070979 -1.698843,1.070979 -0.661245,0 -1.213987,0.0808 -1.279664,0.187072 -0.06359,0.10289 0.267631,0.582215 0.736045,1.065166 0.468414,0.482952 0.901111,1.090081 0.961544,1.349176 0.138293,0.592888 -0.153884,7.544135 -0.387773,8.587787 -0.338198,1.509112 0.919418,1.380056 -13.448335,1.380056 -11.9509248,0 -12.745823,-0.0184 -13.0015693,-0.300999 z m 20.5855533,-1.23284 c 0,-0.140602 -0.268422,-0.389732 -0.596493,-0.553622 -0.535838,-0.267681 -1.242596,-0.298008 -6.950359,-0.298247 -6.4492216,-3.41e-4 -7.2425804,0.06896 -7.6103697,0.664054 -0.3070762,0.496858 0.2328921,0.531395 7.6269937,0.487827 6.560197,-0.03866 7.530228,-0.0773 7.530228,-0.300012 z m 4.899501,-1.032709 c 0.163889,-0.32249 0.2981,-0.835593 0.298247,-1.140231 3.41e-4,-0.547403 -0.0092,-0.553869 -0.809262,-0.552405 -1.187523,0.0022 -2.599006,0.195481 -2.599006,0.355943 0,0.07673 0.594363,0.161917 1.320806,0.189294 1.458901,0.05498 1.467339,0.0653 1.138523,1.392824 -0.170415,0.688005 0.258542,0.526214 0.650692,-0.245425 z M 4.331015,24.493291 c 0,-0.145257 -0.1119793,-0.480648 -0.248843,-0.745313 -0.1368634,-0.264664 -0.2007734,-0.529277 -0.1420221,-0.58803 0.058751,-0.05875 0.7075745,-0.10682 1.4418293,-0.10682 0.7342547,0 1.3350085,-0.06666 1.3350085,-0.148128 0,-0.198697 -1.0396578,-0.35898 -2.343366,-0.361276 -1.0651664,-0.0019 -1.0651664,-0.0019 -1.0651664,0.526254 0,0.66752 0.475273,1.687416 0.7863384,1.687416 0.1299218,0 0.2362213,-0.118847 0.2362213,-0.264103 z M 8.1715234,18.386503 C 8.8170459,18.21351 8.6329095,17.700188 7.7454569,17.198744 7.3002173,16.947168 6.4829658,16.445437 5.9293424,16.083787 4.4631494,15.126009 4.048451,15.186782 3.7749366,16.399509 c -0.2223025,0.985661 0.084401,1.543305 1.0046117,1.826573 0.8179806,0.251797 2.7160395,0.341566 3.3919751,0.160421 z m 18.7870176,-0.07704 c 1.051466,-0.242269 1.36593,-0.569892 1.36593,-1.423087 0,-0.845892 -0.388073,-1.460133 -0.922502,-1.460133 -0.215542,0 -0.728865,0.256159 -1.140717,0.569243 -0.411851,0.313083 -1.123767,0.75533 -1.582036,0.982771 -0.45827,0.227439 -0.946421,0.584023 -1.084782,0.792405 -0.23314,0.351127 -0.222044,0.390698 0.151509,0.540266 0.541209,0.216696 2.269184,0.215907 3.212598,-0.0015 z M 26.446291,13.81139 C 26.82222,13.358424 25.206579,7.5061191 24.60195,7.2605313 24.155461,7.0791769 13.186247,6.9498532 10.197817,7.090711 7.9623391,7.1960788 7.4431139,7.2697757 7.1961303,7.5167593 6.8775487,7.8353409 5.4845864,12.875468 5.4862889,13.49474 c 5.624e-4,0.203092 0.09688,0.40794 0.2140485,0.455219 0.1171683,0.04728 4.7859886,0.09201 10.3751566,0.09942 8.760975,0.0116 10.190893,-0.02121 10.370797,-0.237984 z"/>path> </g> </g> </svg>