<?xml version="1.0" encoding="UTF-8"?>
<svg width="32" height="32" version="1.1" viewBox="0 0 32 32" xmlns="http://www.w3.org/2000/svg"><path d="m21.674 3.7637-3.5664 0.70117-5.6191 0.87695-4.6816 0.52344-1.1699 0.95508v19.016l1.6621 0.52734 7.4668 1.0664 2.5762 0.33594 2.5742 0.33789 0.9375 0.13086 3.5098-0.97461v-22.277l-3.6895-1.2188zm0.79688 1.5332 1.5059 0.57812-0.125 10.357-0.12695 10.357-1.4492 0.27734-0.6582-0.65625v-20.387l0.85352-0.52734zm-7.5508 2.9961c1.4072 0.0076914 2.809 0.20375 4.2227 0.60742 0.32832 0.093752 0.6292 0.18546 0.67188 0.20508 0.035597 0.0215 0.076172 0.035156 0.076172 0.035156-0.012546 0.058032-0.066406 0.14648-0.066406 0.14648-0.037294 0.079762-0.10941 0.21304-0.16016 0.29883-0.020704 0.061687-0.091796 0.15625-0.091796 0.15625-0.098392-0.029174-0.32422-0.11719-0.32422-0.11719-1.1135-0.39758-2.3179-0.62629-3.6504-0.70898-0.608-0.037733-1.9835-5.631e-4 -2.5996 0.068359-1.3087 0.14639-2.401 0.39499-3.5469 0.79492-0.13084 0.045663-0.28619 0.10064-0.33984 0.12109-0.023231 0.021513-0.099609 0.039062-0.099609 0.039062-0.039078-0.073104-0.14648-0.24609-0.14648-0.24609-0.080882-0.13462-0.14844-0.25828-0.14844-0.27539-9e-6 -0.061013 1.1467-0.41508 1.9473-0.60742 1.4346-0.34469 2.8487-0.52527 4.2559-0.51758zm0.63477 0.94336c0.17414 5.27e-5 0.52573 0.019445 0.80469 0.048828 0.85012 0.089545 1.6278 0.24955 2.373 0.49219 0.27919 0.090893 0.61746 0.21413 0.65039 0.23633 0.0257 0.017339-0.15634 0.22812-0.33203 0.38281-0.24833 0.21864-0.51909 0.39427-0.86133 0.55664-0.29991 0.14229-0.3053 0.14127-0.33398-0.023437-0.024198-0.13894-0.16816-0.31369-0.32227-0.39063-0.24461-0.1221-0.5722-0.17175-1.2578-0.18945-0.1248 0.00604-0.4043-0.009765-0.4043-0.009765 8.58e-4 0.052511-0.029297 0.12891-0.029297 0.12891-0.066234 0.3114-0.11239 0.54326-0.20312 1.0078-0.053189 0.27236-0.11195 0.57178-0.13281 0.67188-0.020379 0.097811-0.082305 0.40326-0.13476 0.67187-0.052921 0.27096-0.11197 0.56846-0.13281 0.66797-0.020348 0.097181-0.080033 0.40081-0.13281 0.66797-0.054366 0.27518-0.13712 0.6798-0.1875 0.92773-0.047315 0.23287-0.13424 0.66591-0.18555 0.92383-0.053294 0.26793-0.11195 0.56172-0.13281 0.66016-0.020369 0.096117-0.080303 0.39601-0.13281 0.66016-0.13187 0.66326-0.16351 0.7922-0.18164 0.75-0.00859-0.020049-0.072594-0.3177-0.14062-0.66016-0.073212-0.36851-0.19568-0.97802-0.29492-1.4688 0.03372 0.16675-0.56497-2.7859-0.53125-2.6191-0.10652-0.56239-0.34766-1.7051-0.34766-1.7051-0.094659-0.46147-0.19001-0.91915-0.21484-1.0352-0.004572-0.058903-0.044921-0.20312-0.044921-0.20312-0.035575 0.009981-0.13672 0.001953-0.13672 0.001953-0.075055 0.001278-0.31088 0.014481-0.52344 0.029297-0.63904 0.04456-0.95986 0.12788-1.1523 0.30078-0.091014 0.081752-0.1797 0.25018-0.17969 0.33984 9e-6 0.074709-0.049707 0.068313-0.29883-0.03711-0.48033-0.20326-0.91755-0.48309-1.1309-0.72656-0.053997-0.061641-0.093291-0.11703-0.087891-0.12109 0.026227-0.019605 0.722-0.2613 0.99609-0.3457 0.57601-0.17735 1.3573-0.34962 2.0273-0.44727 0.37862-0.055177 0.87051-0.09961 0.91211-0.082031 0.017923 0.0075689 0.13239 0.11686 0.25391 0.24414 0.34925 0.36582 0.74663 0.78707 0.84375 0.89258 0.065745 0.07142-0.007729 0.14376 0.6582-0.5918 0.29003-0.32035 0.54035-0.59332 0.55664-0.60156 0.009689-0.0048982 0.047421-0.0058769 0.10547-0.0058594zm-7.6387 11.154c0.344 0.037954 1.002 0.083984 1.002 0.083984 0.97067 0.081921 1.0019 0.086466 1.002 0.12891 7.9e-6 0.060763-0.11562 0.1607-0.22461 0.19531-0.064253 0.020395-0.16501 0.021625-0.3457 0.00586-0.075337 0.002473-0.25781-0.021485-0.25781-0.021485l0.0019531 0.53125c0.010026 0.18701 0 0.5293 0 0.5293-0.04334 0.004795-0.16016-0.015625-0.16016-0.015625-0.04334 0.004781-0.16016-0.013672-0.16016-0.013672 0.0099774-0.16653 0-0.53125 0-0.53125 0.0099775-0.16659 0-0.5293 0-0.5293-0.074743 0.002475-0.25391-0.021484-0.25391-0.021484-0.15648-0.013653-0.28899-0.036987-0.3418-0.060547-0.099973-0.044611-0.21821-0.15638-0.24414-0.23047 0.0039602-0.007504-0.017578-0.050781-0.017578-0.050781zm2.7773 0.24609c0-0.006966 0.41393 0.021749 0.91992 0.064453 0.72676 0.061335 0.91992 0.083964 0.91992 0.10742 5e-6 0.052185-0.16692 0.19543-0.25781 0.2207-0.10555 0.029334-1.2085-0.062885-1.3164-0.10938-0.10934-0.047123-0.26562-0.21416-0.26562-0.2832zm2.7324 0.23047c0.30117 0.032786 0.87305 0.066406 0.87305 0.066406 0.62602 0.04841 0.87305 0.074756 0.87305 0.09375 3e-6 0.042623-0.097442 0.14762-0.17773 0.18945-0.06515 0.033948-0.14539 0.034511-0.66211 0-0.18559-0.002708-0.58594-0.039063-0.58594-0.039063 0.007338 0.05536-0.007813 0.13477-0.007813 0.13477 0.007372 0.055368-0.007812 0.13477-0.007812 0.13477 0.25049 0.031894 0.7207 0.064453 0.7207 0.064453 0.25049 0.031958 0.7207 0.064453 0.7207 0.064453v0.43164c0.00998 0.15415 0 0.42969 0 0.42969-0.29703-0.019428-0.91992-0.089844-0.91992-0.089844-0.86892-0.084796-0.92037-0.092399-0.89648-0.12891 0.037567-0.057475 0.16496-0.14378 0.26172-0.17773 0.070642-0.024835 0.18434-0.019789 0.66016 0.02539 0.20159 0.028622 0.57617 0.054688 0.57617 0.054688 0.009999-0.037129 0-0.14258 0-0.14258 0.009999-0.037142 0-0.14453 0-0.14453-0.22782-0.01363-0.71484-0.070312-0.71484-0.070312-0.22782-0.013666-0.71289-0.072266-0.71289-0.072266 0.009992-0.12708 0-0.41211 0-0.41211 0.009992-0.12712 0-0.41211 0-0.41211zm2.627 0.20703c0.061123 0.017203 0.15234 0.019531 0.15234 0.019531 0.061124 0.017224 0.1543 0.021484 0.1543 0.021484 0.012378 0.20229 0.007813 0.57422 0.007813 0.57422 0.012377 0.20237 0.005859 0.57617 0.005859 0.57617 0.23655 0.032125 0.67969 0.064453 0.67969 0.064453 0.6742 0.064015 0.67969 0.063762 0.67969 0.11523 1e-6 0.02853-0.046581 0.089969-0.10352 0.13672-0.024493 0.039108-0.10352 0.085938-0.10352 0.085938-0.23553-0.01322-0.73633-0.072266-0.73633-0.072266-0.23553-0.013284-0.73633-0.072266-0.73633-0.072265 0.009991-0.23113 0-0.72461 0-0.72461 0.009991-0.23119 0-0.72461 0-0.72461zm-5.3594 0.11523c-1e-6 -0.007974 0.41394 0.022986 0.91992 0.068359 0.50599 0.045374 0.91998 0.089943 0.91992 0.09961-2.56e-4 0.045819-0.11563 0.16494-0.19336 0.19922-0.08038 0.035456-0.13455 0.033439-0.72656-0.021485-0.60031-0.055699-0.64611-0.063403-0.72656-0.11523-0.075186-0.04842-0.19336-0.18954-0.19336-0.23047zm7.7285 0.10156c0.10241-0.002043 0.37081 0.016371 0.87109 0.058593 0.50599 0.042704 0.91992 0.087878 0.91992 0.09961 0 0.039936-0.11985 0.17674-0.19531 0.22266-0.070432 0.042861-0.11428 0.042096-0.69336-0.001953-0.58448-0.04442-0.62393-0.05072-0.73047-0.10938-0.10415-0.057391-0.2207-0.19404-0.2207-0.25977 0-0.005053 0.014692-0.009085 0.048828-0.009765zm-7.7285 0.45117c-5.6e-5 -0.009419 0.41394 0.022269 0.91992 0.070312 0.50599 0.048043 0.91998 0.095802 0.91992 0.10547-2.56e-4 0.045818-0.11563 0.16339-0.19336 0.19726-0.080338 0.035064-0.13491 0.032347-0.72656-0.02539-0.59167-0.057739-0.6462-0.06523-0.72656-0.11524-0.077735-0.048404-0.19309-0.18735-0.19336-0.23242zm7.7324 0.12695c0.29895 0.036652 0.86719 0.076172 0.86719 0.076171 0.29895 0.036729 0.86719 0.078125 0.86719 0.078126 0.010002 0.16111 0 0.45117 0 0.45117 0.010002 0.16115 0 0.44922 0 0.44922-0.043341 0.005767-0.16016-0.015625-0.16016-0.015625-0.043341 0.005753-0.16016-0.015625-0.16016-0.015625 0.010001-0.08892 0-0.29883 0-0.29883 0.010001-0.088947 0-0.29883 0-0.29883-0.1767-0.006343-0.56055-0.052734-0.56055-0.052734-0.1767-0.006392-0.56055-0.050782-0.56055-0.050782v0.29688c0.010003 0.1097 0 0.29492 0 0.29492-0.038895 0.006074-0.14648-0.013672-0.14648-0.013672-0.038896 0.006062-0.14648-0.013672-0.14648-0.013672 0.009999-0.13711 0-0.44336 0-0.44336 0.009999-0.13715 0-0.44336 0-0.44336z"/></svg>
