<?xml version="1.0" encoding="UTF-8"?>
<svg width="32" height="32" version="1.1" viewBox="0 0 32 32" xmlns="http://www.w3.org/2000/svg"><path d="m5.9072 27.238c-0.54732-0.22084-0.14142-0.85433 1.6751-2.6141 2.1213-2.0551 2.2262-2.1003 4.3829-1.8896 1.0087 0.09858 1.2809 0.1843 1.3255 0.41765 0.07124 0.37225-2.9888 3.5566-3.7774 3.9306-0.54249 0.25741-3.0819 0.36677-3.6061 0.15528zm6.6343-0.12968c-0.05106-0.13306-0.06774-0.38096-0.03707-0.55092 0.06991-0.38724 3.3943-3.5709 3.949-3.7818 0.49826-0.18944 3.3042-0.07661 3.5224 0.14163 0.28805 0.28806-0.32964 1.1214-2.0677 2.7897-1.7121 1.6433-1.7121 1.6433-3.4929 1.6433-1.3863 0-1.8014-0.05361-1.8737-0.24193zm-8.1389-3.9054c-0.052442-0.13665 0.15352-0.61341 0.45767-1.0594 0.30417-0.44602 0.77372-1.1341 1.0434-1.5291 0.26971-0.39498 0.65569-0.83392 0.85774-0.97542 0.34409-0.24102 0.40356-0.22108 0.94 0.31539 0.66102 0.66102 0.62892 1.1169-0.11223 1.5946-0.24931 0.16066-0.94095 0.65443-1.537 1.0973-1.1396 0.84675-1.4926 0.96585-1.6497 0.5567zm7.08-1.5975c-0.41018-0.25989-0.03301-0.86842 1.4715-2.3742 2.252-2.2539 2.1923-2.2215 4.0884-2.2185 1.9562 0.0031 2.1769 0.0977 1.8199 0.78008-0.28977 0.55394-3.2263 3.474-3.791 3.7696-0.42941 0.22487-3.2486 0.2586-3.5889 0.04293zm6.6128 0.0014c-0.39165-0.2482 0.14384-0.98997 2.064-2.8591 1.7848-1.7375 1.7848-1.7375 3.534-1.7349 0.96205 0.0014 1.8524 0.068 1.9786 0.14796 0.37452 0.23734-0.01605 0.78368-1.9824 2.7735-1.8008 1.8222-1.8008 1.8222-3.5835 1.8196-0.98048-0.0014-1.8852-0.0676-2.0106-0.14701zm-9.169-3.2645c-0.93123-1.1297-1.2111-2.6212-0.80868-4.3101 0.22341-0.93789 0.69464-1.5806 1.7267-2.3552 0.63226-0.47456 0.76028-0.50278 2.3042-0.50852 1.5878-0.0058 1.6593 0.01084 2.4879 0.57562 0.46923 0.3199 0.98453 0.80405 1.1451 1.0759 0.29195 0.49424 0.29195 0.49424-2.4818 3.317-3.2287 3.2857-3.4084 3.3763-4.3733 2.2056zm-6.282-2.195c-1.7397-0.16737-2.3033-0.29646-2.1013-0.48137 0.32993-0.30215 3.4265-1.0972 4.3044-1.1052 0.90297-0.0081 0.93402 0.0068 0.9879 0.47816 0.03056 0.26764 0.010033 0.6681-0.045606 0.88991-0.11453 0.45629-0.43929 0.47888-3.1455 0.2185zm14.365-0.10157c-0.16315-0.04265-0.29664-0.17336-0.29664-0.29047s0.88792-1.1025 1.9732-2.1898c2.1801-2.1842 2.4278-2.3161 4.3523-2.3177 1.4508-0.0012 1.896 0.19859 1.6192 0.72658-0.28911 0.55145-3.3775 3.6704-3.9103 3.949-0.43814 0.22904-3.0075 0.31322-3.7376 0.12243zm6.681-0.06326c-0.39574-0.15863-0.39574-0.15863 0.11496-0.7944 0.28089-0.34969 1.2423-1.3604 2.1365-2.2461 1.6258-1.6103 1.6258-1.6103 3.36-1.6103 0.95374 0 1.8637 0.05331 2.0221 0.11846 0.48241 0.19849-0.0072 0.89446-2.0349 2.8926-1.8468 1.8199-1.8468 1.8199-3.5249 1.8091-0.92292-0.0057-1.8561-0.08212-2.0738-0.16936zm-16.979-4.7808c-0.45882-0.377-1.4533-1.7157-2.0262-2.7274-0.4412-0.77923-0.51362-1.0229-0.33643-1.1324 0.14622-0.090354 0.41359 0.020679 0.7589 0.31488 0.29323 0.24993 0.70747 0.5688 0.92054 0.70865 0.9408 0.61744 2.2087 1.5925 2.2087 1.6985 0 0.25782-0.79145 1.2683-1.023 1.3061-0.13656 0.02236-0.36271-0.05344-0.50255-0.16835zm9.9204-0.45476c-0.36466-0.70517-0.34782-0.75051 0.51473-1.3871 0.42535-0.31387 0.97837-0.73297 1.2289-0.9313 0.71995-0.56987 1.7339-1.0959 1.9067-0.98905 0.21299 0.13164-0.2015 0.90572-1.3354 2.4939-0.84502 1.1836-0.9933 1.3137-1.4972 1.3137-0.44783 0-0.61073-0.0996-0.81784-0.5001zm-5.0661-2.0166c-0.27819-0.3074-0.2894-0.4592-0.1167-1.5814 0.37502-2.4371 0.57485-2.8088 1.2368-2.3008 0.36827 0.28265 0.71191 3.4935 0.40781 3.8101-0.38648 0.40245-1.1944 0.44055-1.5279 0.072133z" stroke-width=".16951"/></svg>
